HIERARCHY
ROOT Hips
{
	OFFSET 0.00000 0.00000 0.00000
	CHANNELS 6 Xposition Yposition Zposition Yrotation Zrotation Xrotation 
	JOINT Lumbar
	{
		OFFSET 0 0 0
		CHANNELS 3 Zrotation Xrotation Yrotation
		JOINT Neck
		{
			OFFSET 0.00 0.2701 0.00
			CHANNELS 3 Zrotation Xrotation Yrotation
			End Site
			{
				OFFSET 0.00 0.1379 0.00
			}
		}
		JOINT RightShoulder
		{
			OFFSET 0.0119 0.2289 0.1181
			CHANNELS 3 Zrotation Xrotation Yrotation
			JOINT RightElbow
			{
				OFFSET 0.00 -0.1475 0.00
				CHANNELS 2 Zrotation Yrotation
				JOINT RightWrist
				{
					OFFSET 0.00 -0.1605 0.00
					CHANNELS 2 Zrotation Xrotation
					End Site
					{
						OFFSET 0.0040 -0.1068 0.0006
					}
				}
			}
		}
		JOINT LeftShoulder
		{
			OFFSET 0.0119 0.2289 -0.1181
			CHANNELS 3 Zrotation Xrotation Yrotation
			JOINT LeftElbow
			{
				OFFSET 0.00 -0.1475 0.00
				CHANNELS 2 Zrotation Yrotation
				JOINT LeftWrist
				{
					OFFSET 0.00 -0.1605 0.00
					CHANNELS 2 Zrotation Xrotation
					End Site
					{
						OFFSET 0.0040 -0.1068 -0.0006
					}
				}
			}
		}
	}
	JOINT RightHip
	{
		OFFSET 0.0316 -0.0424 0.0458
		CHANNELS 3 Zrotation Xrotation Yrotation
		JOINT RightKnee
		{
			OFFSET 0.00 -0.2438 0.00
			CHANNELS 1 Zrotation
			JOINT RightAnkle
			{
				OFFSET 0.00 -0.2449 0.00
				CHANNELS 3 Zrotation Xrotation Yrotation
				End Site
				{
					OFFSET 0.1237 -0.0542 0.0051
				}
			}
		}
	}
	JOINT LeftHip
	{
		OFFSET 0.0316 -0.0424 -0.0458
		CHANNELS 3 Zrotation Xrotation Yrotation
		JOINT LeftKnee
		{
			OFFSET 0.00 -0.2438 0.00
			CHANNELS 1 Zrotation
			JOINT LeftAnkle
			{
				OFFSET 0.00 -0.2449 0.00
				CHANNELS 3 Zrotation Xrotation Yrotation
				End Site
				{
					OFFSET 0.1237 -0.0542 -0.0051
				}
			}
		}
	}
}
MOTION
Frames: 30
Frame Time: 0.02
-0.06858 -0.02754 0.20865 -189.14509 -50.92915 -5.89632 48.44127 -2.64007 -16.41073 5.40998 3.61592 -2.11994 139.83327 -64.61059 55.63321 5.78708 114.24376 21.02677 2.92945 166.38693 171.25675 87.14687 134.30124 -86.8819 -69.31767 5.90173 66.02809 -5.20716 -8.24906 -24.19603 -8.04433 -3.00735 -3.7625 40.06269 -1.89467 19.11996 -22.53743 -6.57925 1.12356 2.79526
-0.0763 -0.0301 0.2063 -189.14247 -51.14278 -5.94347 48.63006 -2.68045 -16.50393 5.29082 3.8049 -2.11994 139.74166 -64.53845 55.63354 5.78703 114.19839 20.97885 2.84644 166.38693 171.25771 87.14687 134.30125 -86.88188 -69.36146 5.97322 66.53167 -5.07151 -8.98252 -23.59597 -7.87552 -3.02253 -3.76296 39.29291 -1.763 18.8732 -22.44632 -6.50404 1.16721 2.81147
-0.08446 -0.03283 0.20374 -189.09098 -51.31372 -6.00041 48.83453 -2.70958 -16.62609 5.17724 3.99843 -2.11994 139.73315 -64.47804 55.6331 5.78707 114.37505 21.02402 2.76928 166.38693 171.25624 87.14687 134.30126 -86.85346 -69.50254 6.03935 66.83674 -5.15262 -10.31745 -23.73517 -7.62475 -2.95853 -3.72215 38.44274 -1.63605 18.36703 -22.34414 -6.43151 1.23438 2.83867
-0.09246 -0.03546 0.20125 -189.06567 -51.49808 -6.0676 49.02895 -2.73928 -16.74744 5.06699 4.19543 -2.11994 139.66772 -64.42026 55.6341 5.78695 114.41159 21.03098 2.68667 166.38693 171.25681 87.14687 134.30127 -86.83221 -69.61873 6.09813 67.20154 -5.10567 -11.31053 -23.53522 -7.42126 -2.92934 -3.6999 37.62101 -1.50321 17.90624 -22.241 -6.36109 1.29772 2.86431
-0.10029 -0.0382 0.19888 -189.02463 -51.71001 -6.07328 49.24004 -2.78793 -16.81401 4.9293 4.3694 -2.11994 139.69357 -64.32649 55.63414 5.78691 114.61522 21.02097 2.61708 166.38694 171.26073 87.14688 134.30128 -86.84785 -69.65576 6.18494 67.69751 -5.17504 -12.56266 -23.35643 -7.17666 -2.90701 -3.67944 36.83323 -1.39019 17.73371 -22.15989 -6.27596 1.33488 2.87669
-0.10859 -0.04075 0.1962 -189.00422 -51.85403 -6.20791 49.41873 -2.79543 -17.00136 4.85146 4.59165 -2.11994 139.54043 -64.31405 55.63144 5.78724 114.52408 21.06789 2.52095 166.38694 171.24792 87.14688 134.30129 -86.76419 -69.87745 6.22895 67.87181 -5.05872 -13.4362 -23.30611 -6.99721 -2.8511 -3.64519 35.95818 -1.23316 16.92003 -22.03493 -6.22287 1.42933 2.91801
-0.11809 -0.04276 0.19274 -189.05461 -51.81397 -6.71203 49.50083 -2.6806 -17.52959 4.93271 4.95392 -2.11994 138.8886 -64.50011 55.63901 5.78657 113.54304 21.25074 2.35153 166.38694 171.26875 87.14688 134.30129 -86.55264 -70.61486 6.00591 67.21035 -4.35351 -13.03526 -23.43075 -7.02434 -2.71871 -3.58171 34.83361 -0.98294 14.22198 -21.75293 -6.25184 1.69834 3.04674
-0.12805 -0.04458 0.18898 -189.1272 -51.70772 -7.34273 49.54963 -2.52664 -18.17593 5.07478 5.36321 -2.11994 138.02185 -64.77847 55.62576 5.78828 112.25603 21.48501 2.15293 166.38694 171.25862 87.14688 134.30129 -86.22012 -71.5292 5.7643 66.23073 -3.45909 -12.25042 -23.65789 -7.11852 -2.5555 -3.50587 33.63036 -0.68327 10.91829 -21.43666 -6.31443 2.02016 3.20236
-0.1378 -0.04646 0.18533 -189.18792 -51.63621 -7.9053 49.61526 -2.39814 -18.75968 5.19306 5.74588 -2.11994 137.27816 -65.02128 55.62925 5.78809 111.12956 21.69779 1.96906 166.38694 171.20989 87.14688 134.30129 -85.84646 -72.34327 5.63438 65.39426 -2.66741 -11.69908 -23.83629 -7.1776 -2.40815 -3.43636 32.47938 -0.38586 8.01189 -21.1584 -6.36493 2.30297 3.33879
-0.14756 -0.04844 0.18177 -189.25346 -51.54444 -8.51315 49.67472 -2.23735 -19.38325 5.29704 6.15086 -2.11994 136.54611 -65.21031 55.6627 5.78456 109.94187 21.91569 1.78696 166.38694 171.38094 87.14688 134.3013 -85.86103 -73.24492 5.08358 64.55808 -1.81271 -10.92172 -24.04968 -7.25345 -2.25032 -3.36242 31.24983 -0.17117 4.59227 -20.77543 -6.4005 2.64921 3.5046
-0.15741 -0.05017 0.17796 -189.31613 -51.47862 -9.05637 49.73846 -2.13402 -19.95 5.44293 6.52049 -2.11994 135.59243 -65.56722 55.55267 5.79708 108.77891 22.12164 1.58441 166.38694 171.09004 87.14688 134.30127 -85.05939 -74.0045 5.38599 63.64693 -1.04121 -10.51289 -24.20492 -7.31124 -2.10795 -3.29528 30.17391 0.22413 2.08719 -20.61459 -6.47709 2.87655 3.61601
-0.16743 -0.05123 0.17354 -189.35511 -51.50958 -9.39217 49.82512 -2.20448 -20.34412 5.70923 6.78088 -2.11994 135.36979 -66.06148 55.72745 5.77761 108.00066 22.39055 1.4196 166.38693 169.50507 87.14687 134.30122 -81.85291 -74.33146 8.2143 62.61883 -0.54816 -11.24135 -24.17011 -7.30418 -2.01674 -3.25046 29.47779 1.13644 2.37999 -20.97345 -6.64122 2.75385 3.56571
-0.17751 -0.05204 0.16889 -189.39274 -51.56728 -9.65797 49.91622 -2.33314 -20.67428 6.01195 7.0041 -2.11994 134.72415 -66.76965 55.64958 5.78642 107.21855 22.62773 1.22149 166.38692 167.46209 87.14686 134.30106 -77.86172 -74.5083 11.87182 61.5248 -0.14395 -12.34542 -24.07005 -7.2768 -1.94242 -3.21305 28.95207 2.22338 3.59393 -21.57654 -6.84824 2.51115 3.46054
-0.18753 -0.05298 0.16435 -189.43788 -51.60736 -9.95464 50.00369 -2.43158 -21.02508 6.28508 7.24434 -2.11994 133.38224 -67.58978 55.22217 5.83442 106.26989 22.8042 0.97824 166.38691 165.64467 87.14685 134.30102 -74.35004 -74.75145 15.04033 60.45412 0.3037 -13.25866 -23.99935 -7.25815 -1.86009 -3.17207 28.38947 3.21016 4.30367 -22.13429 -7.04772 2.32907 3.3837
-0.19771 -0.05387 0.15974 -189.45416 -51.66899 -10.26034 50.09827 -2.54455 -21.416 6.61525 7.48555 -2.11994 135.64423 -67.56496 56.6836 5.67078 105.99288 23.28817 0.9779 166.3869 163.74875 87.14684 134.30098 -70.32073 -75.00893 18.67861 59.40079 0.74525 -14.24701 -23.93506 -7.24378 -1.77784 -3.13135 27.64958 4.28551 5.34618 -22.41202 -7.19992 2.1233 3.29366
-0.20755 -0.05479 0.15525 -189.53053 -51.69191 -10.52817 50.17771 -2.64159 -21.70612 6.83463 7.71547 -2.11994 130.4775 -69.30582 54.24007 5.94462 104.35555 23.13794 0.47727 166.38689 161.91286 87.14683 134.30052 -67.17794 -75.19857 21.53955 58.29903 1.17547 -15.16914 -23.83908 -7.21497 -1.70009 -3.09216 27.32454 5.21842 5.93137 -23.33349 -7.45785 1.9375 3.21753
-0.21651 -0.05585 0.15111 -189.76945 -51.61085 -10.7146 50.22997 -2.68068 -21.73609 6.73783 7.9215 -2.11994 103.38395 -76.249 40.30609 7.50632 98.65609 21.11812 -1.51058 166.38689 160.31388 87.14683 134.30127 -66.73638 -75.23669 22.01633 57.08867 1.59908 -15.85098 -23.68186 -7.14976 -1.62862 -3.05435 28.06918 5.70376 4.9538 -25.95179 -8.01757 1.83796 3.195
-0.22511 -0.05694 0.1471 -190.07024 -51.48862 -10.86353 50.26422 -2.70193 -21.66504 6.52844 8.11748 -2.11994 69.10672 -84.89218 22.59192 9.4915 91.64534 18.48371 -3.97985 166.38689 158.79945 87.14683 134.3005 -67.20419 -75.21096 21.68852 55.83205 2.01245 -16.44874 -23.49234 -7.07074 -1.56156 -3.01807 29.23199 6.04095 3.50144 -29.21045 -8.6776 1.76248 3.18807
-0.23383 -0.05802 0.14305 -190.34408 -51.37916 -11.02508 50.29636 -2.73129 -21.63887 6.37089 8.31907 -2.11994 39.12256 -92.50596 7.1166 11.22541 85.43912 16.21406 -6.15321 166.38689 157.27268 87.14683 134.29971 -67.21492 -75.21424 21.75228 54.59204 2.42822 -17.06415 -23.31042 -6.99863 -1.49405 -2.9819 30.22652 6.45414 2.31816 -32.19389 -9.27903 1.67404 3.17248
-0.24275 -0.0591 0.1389 -190.60987 -51.29504 -11.20309 50.37146 -2.76243 -21.61782 6.21093 8.51521 -2.11994 4.8084 -101.20476 -10.55537 13.20705 78.3568 13.58557 -8.65125 166.38689 155.61771 87.14683 134.30463 -67.37932 -75.21259 21.73656 53.36715 2.85233 -17.77886 -23.15673 -6.92294 -1.42082 -2.94269 31.13611 6.83965 0.94062 -35.13212 -9.93957 1.58826 3.16091
-0.25115 -0.06017 0.13501 -190.911 -51.14882 -11.33864 50.35357 -2.78514 -21.55927 6.02985 8.72053 -2.11994 -22.22084 -108.05305 -24.5608 14.77486 72.78177 11.55514 -10.58958 166.38689 154.25838 87.14683 134.2939 -67.45464 -75.20777 21.68322 52.10195 3.2555 -18.26243 -22.93671 -6.852 -1.35998 -2.90992 32.3184 7.24183 -0.15578 -38.29716 -10.49695 1.50638 3.14629
-0.25821 -0.06124 0.13182 -191.26212 -50.83442 -11.36774 50.07613 -2.78645 -21.45308 5.80841 8.95619 -2.11994 -27.07972 -109.2993 -27.38901 15.07852 71.74478 11.36024 -10.84107 166.38689 153.67493 87.14683 134.27067 -67.02422 -75.21207 21.72962 50.72701 3.6227 -18.12249 -22.54734 -6.79486 -1.33534 -2.89607 34.16202 7.75498 -0.37462 -42.06632 -10.77341 1.41094 3.11151
-0.26473 -0.0623 0.1289 -191.65303 -50.46015 -11.35559 49.70709 -2.77994 -21.30708 5.57117 9.20116 -2.11994 -24.41067 -108.63723 -26.41886 14.95397 72.25997 11.78264 -10.51677 166.38689 153.39187 87.14683 134.2269 -66.48352 -75.21568 21.76041 49.3155 3.96586 -17.75213 -22.09156 -6.74362 -1.32234 -2.88834 36.26249 8.28338 -0.29683 -46.01261 -10.93748 1.32234 3.07472
-0.27149 -0.06336 0.12588 -192.04665 -50.11752 -11.36139 49.38467 -2.77853 -21.15922 5.34729 9.44038 -2.11994 -25.38272 -108.89832 -27.27086 15.03735 72.0282 11.90004 -10.47145 166.38689 152.98687 87.14683 134.17162 -66.02197 -75.21885 21.78981 47.92721 4.30792 -17.48914 -21.66261 -6.69145 -1.30193 -2.8768 38.23797 8.78561 -0.34848 -49.79182 -11.13353 1.2437 3.04446
-0.27828 -0.06444 0.12277 -192.35345 -49.75453 -11.36854 49.04047 -2.77056 -21.09221 5.09352 9.68561 -2.11994 -25.68435 -108.98475 -27.85196 15.08044 71.92521 12.09787 -10.37033 166.38689 152.52391 87.14683 134.20098 -65.46983 -75.2229 21.8278 46.5085 4.7009 -17.21199 -21.24658 -6.63119 -1.29072 -2.86966 40.26438 9.36566 -0.43506 -53.97017 -11.41192 1.1119 2.99154
-0.28487 -0.06547 0.1199 -192.85125 -49.42058 -11.3644 48.72023 -2.77397 -20.84844 4.89957 9.92075 -2.11994 -25.49174 -108.95721 -28.04326 15.09874 71.94085 12.2845 -10.24185 166.38689 152.25078 87.14683 134.05335 -65.0675 -75.22581 21.85417 45.14621 4.98158 -16.91099 -20.78838 -6.58963 -1.26293 -2.85477 42.23853 9.7871 -0.37701 -57.33695 -11.49306 1.09055 2.98444
-0.291 -0.06637 0.11757 -193.85365 -49.17874 -11.33259 48.48737 -2.81633 -20.12916 4.87669 10.12507 -2.11994 -25.81623 -109.093 -28.08987 15.16397 71.89872 12.27793 -10.1804 166.38689 152.43879 87.14683 133.38585 -65.11107 -75.22623 21.85824 43.93931 4.9638 -16.59696 -20.22924 -6.59586 -1.18765 -2.81714 44.01825 9.78479 0.04842 -58.53511 -11.03723 1.38618 3.11045
-0.29693 -0.06723 0.11547 -195.04898 -48.96894 -11.29235 48.28203 -2.86942 -19.23362 4.91485 10.31903 -2.11994 -25.85861 -109.16915 -27.85523 15.21495 71.92831 12.24424 -10.1081 166.38689 152.80496 87.14683 132.54749 -65.3039 -75.22577 21.85393 42.79247 4.83283 -16.26757 -19.63014 -6.62119 -1.0951 -2.77149 45.73227 9.61988 0.60373 -58.88626 -10.39008 1.78981 3.28131
-0.30295 -0.06811 0.11327 -196.16428 -48.74646 -11.2604 48.06505 -2.91408 -18.41711 4.92414 10.51834 -2.11994 -25.9686 -109.25688 -27.72935 15.26335 71.93751 12.23311 -10.03784 166.38689 153.08253 87.14683 131.81139 -65.42027 -75.22573 21.8536 41.62443 4.74992 -15.94835 -19.05011 -6.63945 -1.00964 -2.72937 47.4656 9.51814 1.07542 -59.54507 -9.84282 2.13523 3.42771
-0.30899 -0.06897 0.11103 -197.24888 -48.51385 -11.20785 47.8415 -2.97368 -17.60259 4.93707 10.71558 -2.11994 -26.07975 -109.34527 -27.55602 15.33522 71.9556 12.19881 -9.9619 166.38689 153.4036 87.14683 130.97157 -65.56919 -75.22553 21.85179 40.42918 4.68035 -15.60898 -18.46434 -6.65123 -0.92758 -2.68785 49.25167 9.46139 1.66156 -60.5337 -9.23653 2.52048 3.59171
